<svg width="24" height="23" viewBox="0 0 24 23" fill="none" xmlns="http://www.w3.org/2000/svg">
<path d="M8.48419 19.9375C9.26084 19.9375 9.89044 19.3079 9.89044 18.5312C9.89044 17.7546 9.26084 17.125 8.48419 17.125C7.70754 17.125 7.07794 17.7546 7.07794 18.5312C7.07794 19.3079 7.70754 19.9375 8.48419 19.9375Z" fill="white"/>
<path d="M18.328 19.9375C19.1047 19.9375 19.7343 19.3079 19.7343 18.5312C19.7343 17.7546 19.1047 17.125 18.328 17.125C17.5514 17.125 16.9218 17.7546 16.9218 18.5312C16.9218 19.3079 17.5514 19.9375 18.328 19.9375Z" fill="white"/>
<path d="M20.8241 5.55796C20.7253 5.43713 20.6009 5.33981 20.4598 5.27308C20.3187 5.20634 20.1645 5.17185 20.0085 5.17212H6.63371L6.36433 3.6437C6.33561 3.4809 6.25043 3.33342 6.12377 3.22717C5.99712 3.12093 5.83707 3.06271 5.67175 3.06274H2.85925C2.67277 3.06274 2.49393 3.13682 2.36207 3.26868C2.23021 3.40055 2.15613 3.57939 2.15613 3.76587C2.15613 3.95235 2.23021 4.13119 2.36207 4.26305C2.49393 4.39491 2.67277 4.46899 2.85925 4.46899H5.08201L7.08855 15.8412C7.11727 16.004 7.20244 16.1514 7.3291 16.2577C7.45576 16.3639 7.61581 16.4221 7.78113 16.4221H19.0311C19.2176 16.4221 19.3964 16.348 19.5283 16.2162C19.6602 16.0843 19.7342 15.9055 19.7342 15.719C19.7342 15.5325 19.6602 15.3537 19.5283 15.2218C19.3964 15.0899 19.2176 15.0159 19.0311 15.0159H8.37087L8.12302 13.6096H18.7428C18.9867 13.6093 19.2229 13.5248 19.4116 13.3703C19.6003 13.2158 19.7298 13.0009 19.7782 12.7619L21.0438 6.43379C21.0743 6.28064 21.0704 6.12263 21.0324 5.97117C20.9944 5.81971 20.9233 5.67857 20.8241 5.55796Z" fill="white"/>
</svg>
