<svg width="37" height="37" viewBox="0 0 37 37" fill="none" xmlns="http://www.w3.org/2000/svg">
<rect opacity="0.08" x="-0.00012207" width="37" height="37" rx="12" fill="white"/>
<g clip-path="url(#clip0_1_1103)">
<path d="M11.9999 17C10.8999 17 9.99988 17.9 9.99988 19C9.99988 20.1 10.8999 21 11.9999 21C13.0999 21 13.9999 20.1 13.9999 19C13.9999 17.9 13.0999 17 11.9999 17ZM23.9999 17C22.8999 17 21.9999 17.9 21.9999 19C21.9999 20.1 22.8999 21 23.9999 21C25.0999 21 25.9999 20.1 25.9999 19C25.9999 17.9 25.0999 17 23.9999 17ZM17.9999 17C16.8999 17 15.9999 17.9 15.9999 19C15.9999 20.1 16.8999 21 17.9999 21C19.0999 21 19.9999 20.1 19.9999 19C19.9999 17.9 19.0999 17 17.9999 17Z" fill="#7551FF"/>
</g>
<defs>
<clipPath id="clip0_1_1103">
<rect width="24" height="24" fill="white" transform="translate(5.99988 7)"/>
</clipPath>
</defs>
</svg>
