<svg width="13" height="13" viewBox="0 0 13 13" fill="none" xmlns="http://www.w3.org/2000/svg">
<path d="M2.58157 2.78788H10.3941C10.4853 2.78784 10.5765 2.79363 10.667 2.80522C10.6363 2.58983 10.5624 2.38289 10.4495 2.19686C10.3367 2.01084 10.1874 1.8496 10.0106 1.72284C9.83373 1.59609 9.63306 1.50646 9.42066 1.45936C9.20826 1.41226 8.98852 1.40866 8.77469 1.44877L2.34964 2.5457H2.34232C1.93901 2.62282 1.58037 2.851 1.33963 3.18363C1.70232 2.92566 2.13649 2.78731 2.58157 2.78788V2.78788Z" fill="white"/>
<path d="M10.3941 3.375H2.58165C2.16739 3.37545 1.77022 3.54022 1.47729 3.83315C1.18437 4.12607 1.0196 4.52324 1.01915 4.9375V9.625C1.0196 10.0393 1.18437 10.4364 1.47729 10.7294C1.77022 11.0223 2.16739 11.187 2.58165 11.1875H10.3941C10.8084 11.187 11.2056 11.0223 11.4985 10.7294C11.7914 10.4364 11.9562 10.0393 11.9566 9.625V4.9375C11.9562 4.52324 11.7914 4.12607 11.4985 3.83315C11.2056 3.54022 10.8084 3.37545 10.3941 3.375V3.375ZM9.23448 8.0625C9.07996 8.0625 8.92892 8.01668 8.80044 7.93083C8.67196 7.84499 8.57183 7.72298 8.5127 7.58022C8.45357 7.43747 8.4381 7.28038 8.46824 7.12883C8.49839 6.97729 8.57279 6.83808 8.68205 6.72882C8.79131 6.61956 8.93052 6.54516 9.08207 6.51501C9.23361 6.48487 9.3907 6.50034 9.53345 6.55947C9.67621 6.6186 9.79822 6.71873 9.88407 6.84721C9.96991 6.97569 10.0157 7.12673 10.0157 7.28125C10.0157 7.48845 9.93342 7.68716 9.78691 7.83368C9.64039 7.98019 9.44168 8.0625 9.23448 8.0625Z" fill="white"/>
<path d="M1.03131 6.58411V4.15491C1.03131 3.62585 1.32428 2.73889 2.34113 2.54675C3.20416 2.38489 4.05865 2.38489 4.05865 2.38489C4.05865 2.38489 4.62018 2.77551 4.15631 2.77551C3.69244 2.77551 3.70465 3.37366 4.15631 3.37366C4.60797 3.37366 4.15631 3.94739 4.15631 3.94739L2.33746 6.01038L1.03131 6.58411Z" fill="white"/>
</svg>
